<svg viewBox="0 0 340 390" xmlns="http://www.w3.org/2000/svg" xmlns:xlink="http://www.w3.org/1999/xlink">
  <defs>
    <path
      id="window_path"
      d="
        M204,232
        h-2
        a3.4,3.4,0,0,0,-3.4,3.4
        v3
        a3.4,3.4,0,0,0,3.4,3.4
        h2
        a3.4,3.4,0,0,0,3.4,-3.4
        v-3
        a3.4,3.4,0,0,0,-3.4,-3.4
        Z
      "
      fill="none"
      stroke="#fff"
      stroke-linecap="round"
      stroke-linejoin="round"
      stroke-width="2"
    >
      <animate
        attributeName="d"
        attributeType="XML"
        to="
        M275,152
        h-17
        a18,18,0,0,0,-18,18
        v37
        a18,18,0,0,0,18,18
        h17
        a18,18,0,0,0,18,-18
        v-37
        a18,18,0,0,0,-18,-18
        Z
      "
        begin="3.2s"
        dur="0.4s"
        fill="freeze"
      />
    </path>
    <clipPath id="window_clip">
      <use xlink:href="#window_path"/>
    </clipPath>
  </defs>

  <g id="window" transform="translate(0 -3)">
    <set
      attributeName="opacity"
      attributeType="XML"
      to="0"
      fill="freeze"
    />
    <animate
      attributeName="opacity"
      attributeType="XML"
      to="1"
      begin="scene1_opacity_up.begin"
      dur="0.3s"
      fill="freeze"
    />
    <animateTransform
      attributeName="transform"
      attributeType="XML"
      type="translate"
      values="0 -3; 0 0; -20 40; -20 40; 0 0; 0 -3; 0 -3"
      fill="freeze"
      additive="replace"
      begin="scene1_opacity_up.begin"
      end="scene1_opacity_down.end"
      dur="2.4s"
      repeatCount="indefinite"
    />
    <animateTransform
      attributeName="transform"
      attributeType="XML"
      type="scale"
      values="1 1; 1 1; 1 0.82; 1 0.82; 1 1; 1 1; 1 1"
      fill="freeze"
      additive="sum"
      begin="scene1_opacity_up.begin"
      end="scene1_opacity_down.end"
      dur="2.4s"
      repeatCount="indefinite"
    />
    <animateTransform
      attributeName="transform"
      attributeType="XML"
      type="skewX"
      values="0; 0; 5; 5; 0; 0; 0"
      fill="freeze"
      additive="sum"
      begin="scene1_opacity_up.begin"
      end="scene1_opacity_down.end"
      dur="2.4s"
      repeatCount="indefinite"
    />
    <use xlink:href="#window_path"/>
  </g>

  <g id="scene1">
    <set
      attributeName="opacity"
      attributeType="XML"
      to="0"
      fill="freeze"
    />
    <animate
      id="scene1_opacity_up"
      attributeName="opacity"
      attributeType="XML"
      to="1"
      begin="0.7s"
      dur="0.3s"
      fill="freeze"
    />
    <animate
      id="scene1_opacity_down"
      attributeName="opacity"
      attributeType="XML"
      to="0"
      begin="3.2s"
      dur="0.3s"
      fill="freeze"
    />

    <g id="ship_back" transform="translate(0 2.5)">
      <animateTransform
        attributeName="transform"
        attributeType="XML"
        type="translate"
        values="0 2.5; 0 0; 0 -2.5; 0 -2.5; 0 0; 0 2.5; 0 2.5"
        fill="freeze"
        begin="scene1_opacity_up.begin"
        dur="2.4s"
        repeatCount="indefinite"
      />
      <path id="ship_lower_wing_back_fill" d="M123.23,207.39h9.16a3.29,3.29,0,0,0,3.29-3.3v-5.71a3.29,3.29,0,0,0-3.29-3.3H115.57a1.32,1.32,0,0,0-1.32,1.32v2a9,9,0,0,0,9,9" fill="#068e4d"/>
      <path id="ship_lower_wing_back_stroke" d="M123.23,207.39h9.16a3.29,3.29,0,0,0,3.29-3.3v-5.71a3.29,3.29,0,0,0-3.29-3.3H115.57a1.32,1.32,0,0,0-1.32,1.32v2A9,9,0,0,0,123.23,207.39Z" fill="none" stroke="#fff" stroke-linecap="round" stroke-linejoin="round" stroke-width="2"/>
      <path id="ship_lower_wing_back_fill" d="M123.23,173.34h9.16a3.29,3.29,0,0,1,3.29,3.3v5.71a3.29,3.29,0,0,1-3.29,3.3H115.57a1.32,1.32,0,0,1-1.32-1.32v-2a9,9,0,0,1,9-9" fill="#068e4d"/>
      <path id="ship_lower_wing_back_stroke" d="M123.23,173.34h9.16a3.29,3.29,0,0,1,3.29,3.3v5.71a3.29,3.29,0,0,1-3.29,3.3H115.57a1.32,1.32,0,0,1-1.32-1.32v-2A9,9,0,0,1,123.23,173.34Z" fill="none" stroke="#fff" stroke-linecap="round" stroke-linejoin="round" stroke-width="2"/>
    </g>

    <g id="ship_body" transform="translate(0 -3)">
      <animateTransform
        attributeName="transform"
        attributeType="XML"
        type="rotate"
        values="0"
        begin="scene1_opacity_up.begin"
      />
      <animateTransform
        attributeName="transform"
        attributeType="XML"
        type="translate"
        values="0 -3; 0 0; -20 40; -20 40; 0 0; 0 -3; 0 -3"
        fill="freeze"
        additive="sum"
        begin="scene1_opacity_up.begin"
        dur="2.4s"
        repeatCount="indefinite"
      />
      <animateTransform
        attributeName="transform"
        attributeType="XML"
        type="scale"
        values="1 1; 1 1; 1 0.82; 1 0.82; 1 1; 1 1; 1 1"
        fill="freeze"
        additive="sum"
        begin="scene1_opacity_up.begin"
        dur="2.4s"
        repeatCount="indefinite"
      />
      <animateTransform
        attributeName="transform"
        attributeType="XML"
        type="skewX"
        values="0; 0; 5; 5; 0; 0; 0"
        fill="freeze"
        additive="sum"
        begin="scene1_opacity_up.begin"
        dur="2.4s"
        repeatCount="indefinite"
      />
      <path d="M175.44,249.28h48.36a13.27,13.27,0,0,0,13-10.65l3.74-18.32H172.36v25.89A3.09,3.09,0,0,0,175.44,249.28Z" fill="none" stroke="#fff" stroke-linecap="round" stroke-linejoin="round" stroke-width="2"/>
      <path d="M235.79,241.69h-9.22a8.31,8.31,0,0,1-8.28-8.31V220.31" fill="none" stroke="#fff" stroke-linecap="round" stroke-miterlimit="10" stroke-width="2"/>
      <path d="M185.64,231.88h-2.05a3.45,3.45,0,0,0-3.43,3.45v2.92a3.45,3.45,0,0,0,3.43,3.45h2.05a3.45,3.45,0,0,0,3.43-3.45v-2.92A3.45,3.45,0,0,0,185.64,231.88Z" fill="none" stroke="#fff" stroke-linecap="round" stroke-linejoin="round" stroke-width="2"/>
    </g>

    <g id="ship_balloon">
      <path id="ship_fill" d="M205,227.08c43.38,0,74.86-15.55,74.86-37s-31.48-37-74.86-37c-27.94,0-55.36,13.53-73.46,24.87a14.3,14.3,0,0,0,0,24.21c18.09,11.33,45.52,24.87,73.46,24.87" fill="#25b774"/>
      <path id="ship_stroke" d="M205,227.08c43.38,0,74.86-15.55,74.86-37s-31.48-37-74.86-37c-27.94,0-55.36,13.53-73.46,24.87a14.3,14.3,0,0,0,0,24.21C149.63,213.54,177.06,227.08,205,227.08Z" fill="none" stroke="#fff" stroke-width="2"/>
      <path id="ship_upper" d="M205 190.43C176.77 190.43 132.19 190.43 132.19 190.43C132.19 190.43 132.19 190.43 126.11 190.43C126.028 188.159 126.546 185.908 127.612 183.901C128.678 181.894 130.253 180.204 132.18 179C148.92 168.5 176.76 154.32 204.99 154.32C249.8 154.32 278.63 170.32 278.63 190.07C278.63 190.19 278.63 190.3 278.63 190.43C278.63 190.43 249.53 190.43 205 190.43Z" fill="#36E69A"/>
      <path id="ship_lower" d="M132.18 190.94C132.18 190.9 204.99 190.94 204.99 190.94L278.59 190.94C277.73 210.28 249.14 225.8 204.99 225.8C176.76 225.8 148.92 211.61 132.18 201.12C130.44 200.025 128.988 198.53 127.944 196.759C126.9 194.988 126.295 192.993 126.18 190.94C126.18 190.94 132.18 190.98 132.18 190.94Z" fill="#068E4D"/>
      <path id="ship_middle" d="M132 186C149 182 177 179 205 179C250 179 278 182 279 190C279 190 279 190 279 191C278 199 250 208 205 208C177 208 149 199 132 195C128 194 126 192 126 191C126 190.5 126 189 128 188" fill="#25b774"/>
      <animate
        xlink:href="#ship_middle"
        attributeName="d"
        attributeType="XML"
        values="
              M132 186C149 182 177 173 205 173C250 173 278 182 279 190C279 190 279 190 279 191C278 199 250 202 205 202C177 202 149 199 132 195C128 194 126 192 126 191C126 190.5 126 189 128 188;
              M132,186 c17,-4 45,-10 73,-10 45,0 73,6 74,14 0,0 0,0 0,1 -1,8 -29,14 -74,14 -28,0 -56,-6 -73,-10 -4,-1 -6,-3 -6,-4 0,-0.5 0,-2 2,-3 6,-4;
              M132 186C149 182 177 179 205 179C250 179 278 182 279 190C279 190 279 190 279 191C278 199 250 208 205 208C177 208 149 199 132 195C128 194 126 192 126 191C126 190.5 126 189 128 188;
              M132 186C149 182 177 179 205 179C250 179 278 182 279 190C279 190 279 190 279 191C278 199 250 208 205 208C177 208 149 199 132 195C128 194 126 192 126 191C126 190.5 126 189 128 188;
              M132,186 c17,-4 45,-10 73,-10 45,0 73,6 74,14 0,0 0,0 0,1 -1,8 -29,14 -74,14 -28,0 -56,-6 -73,-10 -4,-1 -6,-3 -6,-4 0,-0.5 0,-2 2,-3 6,-4;
              M132 186C149 182 177 173 205 173C250 173 278 182 279 190C279 190 279 190 279 191C278 199 250 202 205 202C177 202 149 199 132 195C128 194 126 192 126 191C126 190.5 126 189 128 188;
              M132 186C149 182 177 173 205 173C250 173 278 182 279 190C279 190 279 190 279 191C278 199 250 202 205 202C177 202 149 199 132 195C128 194 126 192 126 191C126 190.5 126 189 128 188
            "
        fill="freeze"
        begin="scene1_opacity_up.begin"
        dur="2.4s"
        repeatCount="indefinite"
      />
    </g>

    <g id="ship_front" transform="translate(0 -2.5)">
      <animateTransform
        attributeName="transform"
        attributeType="XML"
        type="translate"
        values="0 -2.5; 0 0; 0 2.5; 0 2.5; 0 0; 0 -2.5; 0 -2.5"
        fill="freeze"
        begin="scene1_opacity_up.begin"
        dur="2.4s"
        repeatCount="indefinite"
      />
      <path id="ship_upper_wing_front_fill" d="M123.23,173.34h9.16a3.29,3.29,0,0,1,3.29,3.3v5.71a3.29,3.29,0,0,1-3.29,3.3H115.57a1.32,1.32,0,0,1-1.32-1.32v-2a9,9,0,0,1,9-9" fill="#068e4d"/>
      <path id="ship_upper_wing_front_stroke" d="M123.23,173.34h9.16a3.29,3.29,0,0,1,3.29,3.3v5.71a3.29,3.29,0,0,1-3.29,3.3H115.57a1.32,1.32,0,0,1-1.32-1.32v-2A9,9,0,0,1,123.23,173.34Z" fill="none" stroke="#fff" stroke-linecap="round" stroke-linejoin="round" stroke-width="2"/>
      <path id="ship_lower_wing_front_fill" d="M123.23,207.39h9.16a3.29,3.29,0,0,0,3.29-3.3v-5.71a3.29,3.29,0,0,0-3.29-3.3H115.57a1.32,1.32,0,0,0-1.32,1.32v2a9,9,0,0,0,9,9" fill="#068e4d"/>
      <path id="ship_lower_wing_front_stroke" d="M123.23,207.39h9.16a3.29,3.29,0,0,0,3.29-3.3v-5.71a3.29,3.29,0,0,0-3.29-3.3H115.57a1.32,1.32,0,0,0-1.32,1.32v2A9,9,0,0,0,123.23,207.39Z" fill="none" stroke="#fff" stroke-linecap="round" stroke-linejoin="round" stroke-width="2"/>
    </g>

    <g id="air">
      <line id="air1" x1="106.25" y1="179.49" x2="84.05" y2="179.49" fill="none" stroke="#fff" stroke-linecap="round" stroke-miterlimit="10" stroke-width="2">
        <animate
          attributeName="x2"
          attributeType="XML"
          values="84.05; 88.05; 84.05"
          dur="0.2s"
          repeatCount="indefinite"
        />
      </line>
      <line id="air2" x1="106.25" y1="190.98" x2="75.77" y2="190.98" fill="none" stroke="#fff" stroke-linecap="round" stroke-miterlimit="10" stroke-width="2">
        <animate
          attributeName="x2"
          attributeType="XML"
          values="75.77; 68.77; 75.77"
          dur="0.2s"
          repeatCount="indefinite"
        />
      </line>
      <line id="air3" x1="106.25" y1="201.23" x2="84.05" y2="201.23" fill="none" stroke="#fff" stroke-linecap="round" stroke-miterlimit="10" stroke-width="2">
        <animate
          attributeName="x2"
          attributeType="XML"
          values="84.05; 88.05; 84.05"
          begin="-0.05"
          dur="0.2s"
          repeatCount="indefinite"
        />
      </line>
    </g>

    <g id="cloud_left" transform="translate(180 0)">
      <animate
        attributeName="opacity"
        attributeType="XML"
        to="0"
        begin="2.5s"
        dur="0.3s"
        fill="freeze"
      />
      <animateTransform
        attributeName="transform"
        attributeType="XML"
        type="translate"
        values="180 0; -30 0"
        begin="scene1_opacity_up.begin"
        dur="2.1s"
        fill="freeze"
        additive="replace"
      />
      <line x1="68.95" y1="107.8" x2="131.86" y2="107.8" fill="none" stroke="#fff" stroke-linecap="round" stroke-miterlimit="10" stroke-width="2"/>
      <path d="M41.77,97.54H77.06a12.4,12.4,0,1,1,24.8,0h17.93" fill="none" stroke="#fff" stroke-linecap="round" stroke-miterlimit="10" stroke-width="2"/>
    </g>

    <g id="cloud_right" transform="translate(30 0)">
      <set
        attributeName="opacity"
        attributeType="XML"
        to="0"
        fill="freeze"
      />
      <animate
        id="cloud_right_opacity_up"
        attributeName="opacity"
        attributeType="XML"
        to="1"
        begin="2.1s"
        dur="0.3s"
        fill="freeze"
      />
      <animateTransform
        attributeName="transform"
        attributeType="XML"
        type="translate"
        to="-150 0"
        begin="cloud_right_opacity_up.begin"
        dur="1.5s"
        fill="freeze"
      />
      <animate
        attributeName="opacity"
        attributeType="XML"
        to="0"
        begin="3.3s"
        dur="0.3s"
        fill="freeze"
      />
      <path d="M278.75,82.91H251.39a12.4,12.4,0,1,0-24.8,0H208.65" fill="none" stroke="#fff" stroke-linecap="round" stroke-miterlimit="10" stroke-width="2"/>
      <line x1="258.96" y1="93.19" x2="298.74" y2="93.19" fill="none" stroke="#fff" stroke-linecap="round" stroke-miterlimit="10" stroke-width="2"/>
      <line x1="287.01" y1="82.91" x2="309.21" y2="82.91" fill="none" stroke="#fff" stroke-linecap="round" stroke-miterlimit="10" stroke-width="2"/>
    </g>
  </g>

  <g id="window_clouds" clip-path="url(#window_clip)">
    <set
      attributeName="opacity"
      attributeType="XML"
      to="0"
      fill="freeze"
    />
    <set
      attributeName="opacity"
      attributeType="XML"
      to="1"
      begin="3.4s"
      fill="freeze"
    />
    <g transform="translate(290 170)">
      <animateTransform
        attributeName="transform"
        attributeType="XML"
        type="translate"
        values="290 170; 110 170"
        begin="3.6s"
        dur="2.6s"
        fill="freeze"
        repeatCount="indefinite"
      />
      <g transform="scale(0.5)">
        <line x1="28.18" y1="38.34" x2="91.09" y2="38.34" fill="none" stroke="#fff" stroke-linecap="round" stroke-miterlimit="10" stroke-width="2"/>
        <path d="M41.77,97.54H77.06a12.4,12.4,0,1,1,24.8,0h17.93" transform="translate(-40.77 -69.46)" fill="none" stroke="#fff" stroke-linecap="round" stroke-miterlimit="10" stroke-width="2"/>
        <line x1="218.19" y1="23.72" x2="257.97" y2="23.72" fill="none" stroke="#fff" stroke-linecap="round" stroke-miterlimit="10" stroke-width="2"/>
        <path d="M278.75,82.91H251.39a12.4,12.4,0,1,0-24.8,0H208.65" transform="translate(-40.77 -69.46)" fill="none" stroke="#fff" stroke-linecap="round" stroke-miterlimit="10" stroke-width="2"/>
        <line x1="246.24" y1="13.45" x2="268.43" y2="13.45" fill="none" stroke="#fff" stroke-linecap="round" stroke-miterlimit="10" stroke-width="2"/>
      </g>
    </g>
  </g>

  <g id="ski">
    <set
      attributeName="opacity"
      attributeType="XML"
      to="0"
      fill="freeze"
    />
    <animate
      attributeName="opacity"
      attributeType="XML"
      to="1"
      begin="3.6s"
      dur="0.3s"
      fill="freeze"
    />
    <animateTransform
      attributeName="transform"
      attributeType="XML"
      type="translate"
      values="-40 0; 0 0"
      begin="3.6s"
      dur="0.3s"
      fill="freeze"
    />
    <path
      id="ski_left"
      d="M91.14,327.79a2.2,2.2,0,0,1-2-2.36l13.66-193.17c1.1-15.49-4.8-21.92-8.75-24.47a1.35,1.35,0,0,1,.53-2.45C103,104,122.18,104,120,134.19L106.43,326.67a2.2,2.2,0,0,1-2.35,2Z"
      fill="#fff"
    >
      <animateTransform
        attributeName="transform"
        attributeType="XML"
        type="rotate"
        values="-1 98 328; 0 98 328; -1 98 328"
        begin="3.6s"
        dur="1.5s"
        fill="freeze"
        repeatCount="indefinite"
        additive="sum"
      />
    </path>
    <path
      id="ski_right"
      d="M124.5,328.17a2.2,2.2,0,0,1-2.17-2.23l2.24-193.63c0.19-15.53-6.07-21.61-10.16-23.91a1.35,1.35,0,0,1,.39-2.47c8.36-1.9,27.49-3,27.15,27.28l-2.25,192.93a2.2,2.2,0,0,1-2.22,2.18Z"
      fill="#fff"
    >
      <animateTransform
        attributeName="transform"
        attributeType="XML"
        type="rotate"
        values="-1 131 328; 0 131 328; -1 131 328"
        begin="3.6s"
        dur="1.5s"
        fill="freeze"
        repeatCount="indefinite"
        additive="sum"
      />
    </path>
  </g>

  <g id="chair">
    <set
      attributeName="opacity"
      attributeType="XML"
      to="0"
      fill="freeze"
    />
    <animate
      attributeName="opacity"
      attributeType="XML"
      to="1"
      begin="3.5s"
      dur="0.3s"
      fill="freeze"
    />
    <animateTransform
      attributeName="transform"
      attributeType="XML"
      type="translate"
      values="-100 0; 0 0"
      begin="3.5s"
      dur="0.3s"
      fill="freeze"
    />
    <path d="M257.5,259.82H196.76V245.63h55.09a9.92,9.92,0,0,1,9.9,9.93,4.26,4.26,0,0,1-4.25,4.25" fill="#a67ee5"/>
    <path d="M257.5,259.82H196.76V245.63h55.09a9.92,9.92,0,0,1,9.9,9.93A4.26,4.26,0,0,1,257.5,259.82Z" fill="none" stroke="#fff" stroke-miterlimit="10" stroke-width="2"/>
    <polygon points="185.47 328.31 171.5 328.31 165.19 286.72 179.16 286.72 185.47 328.31" fill="#a67ee5"/>
    <polygon points="185.47 328.31 171.5 328.31 165.19 286.72 179.16 286.72 185.47 328.31" fill="none" stroke="#fff" stroke-miterlimit="10" stroke-width="2"/>
    <polygon points="235.03 328.31 221.06 328.31 214.76 286.72 228.72 286.72 235.03 328.31" fill="#a67ee5"/>
    <polygon points="235.03 328.31 221.06 328.31 214.76 286.72 228.72 286.72 235.03 328.31" fill="none" stroke="#fff" stroke-miterlimit="10" stroke-width="2"/>
    <path d="M281.33,272.45H225.44a5.59,5.59,0,0,1-5.53-4.77l-10.86-72.24a17.71,17.71,0,0,0-12.49-31.31H141.48L141.16,267l15.77,23.35,47.19,8.39a12.3,12.3,0,0,0,4.22.75h73a13.53,13.53,0,0,0,0-27.06" fill="#a67ee5"/>
    <path d="M281.33,272.45H225.44a5.59,5.59,0,0,1-5.53-4.77l-10.86-72.24a17.71,17.71,0,0,0-12.49-31.31H141.48L141.16,267l15.77,23.35,47.19,8.39a12.3,12.3,0,0,0,4.22.75h73A13.53,13.53,0,0,0,281.33,272.45Z" fill="none" stroke="#fff" stroke-miterlimit="10" stroke-width="2"/>
    <path d="M162.42,267.69l-10.86-72.24a17.71,17.71,0,1,0-29-13.61,18,18,0,0,0,.79,5.25L138.65,289a12.36,12.36,0,0,0,12.21,10.54h73a13.53,13.53,0,0,0,0-27.05H167.95a5.62,5.62,0,0,1-5.53-4.78" fill="#a67ee5"/>
    <path d="M162.42,267.69l-10.86-72.24a17.71,17.71,0,1,0-29-13.61,18,18,0,0,0,.79,5.25L138.65,289a12.36,12.36,0,0,0,12.21,10.54h73a13.53,13.53,0,0,0,0-27.05H167.95A5.62,5.62,0,0,1,162.42,267.69Z" fill="none" stroke="#fff" stroke-miterlimit="10" stroke-width="2"/>
    <path d="M206.26,259.82h-72l-2.13-14.19H200.6a9.92,9.92,0,0,1,9.9,9.93,4.26,4.26,0,0,1-4.25,4.25" fill="#a67ee5"/>
    <path d="M206.26,259.82h-72l-2.13-14.19H200.6a9.92,9.92,0,0,1,9.9,9.93A4.26,4.26,0,0,1,206.26,259.82Z" fill="none" stroke="#fff" stroke-miterlimit="10" stroke-width="2"/>
    <line x1="151.57" y1="195.44" x2="209.05" y2="195.44" fill="none" stroke="#fff" stroke-linecap="round" stroke-miterlimit="10" stroke-width="2"/>
  </g>

  <g id="leaf" transform="translate(-40, 0) rotate(-5 150.5 328)">
    <set
      attributeName="opacity"
      attributeType="XML"
      to="0"
      fill="freeze"
    />
    <animate
      attributeName="opacity"
      attributeType="XML"
      to="1"
      begin="3.6s"
      dur="0.3s"
      fill="freeze"
    />
    <animateTransform
      attributeName="transform"
      attributeType="XML"
      type="translate"
      values="-40 0; 0 0"
      begin="3.6s"
      dur="0.3s"
      fill="freeze"
      additive="replace"
    />
    <animateTransform
      attributeName="transform"
      attributeType="XML"
      type="rotate"
      values="-5 150.5 328; 5 150.5 328; -5 150.5 328"
      begin="3.6s"
      dur="0.6s"
      fill="freeze"
      additive="sum"
    />
    <animateTransform
      attributeName="transform"
      attributeType="XML"
      type="rotate"
      values="-2 150.5 328; 5 150.5 328; -2 150.5 328"
      begin="4.2s"
      dur="0.9s"
      fill="freeze"
      repeatCount="indefinite"
      additive="sum"
    />
    <!-- 1.5 -->
    <path d="M79.18,194A131,131,0,0,1,94.77,220.9a255,255,0,0,1-20.08-23.55,259,259,0,0,1-17.07-25.88A131.72,131.72,0,0,1,79.18,194" fill="#36e69a"/>
    <path d="M80.94,214.39a127.19,127.19,0,0,1,22.8,20.49A242.09,242.09,0,0,1,77.9,219.17a235.86,235.86,0,0,1-23.42-18.7,119.82,119.82,0,0,1,26.46,13.92" fill="#36e69a"/>
    <path d="M93.66,205.48a258.38,258.38,0,0,0,10.08,29.39,125.63,125.63,0,0,0-4.5-30.52,135.9,135.9,0,0,0-12.06-29.44,260.33,260.33,0,0,0,6.47,30.57" fill="#36e69a"/>
    <path d="M107.32,213.52a250.14,250.14,0,0,0,2.06,30.67,119.93,119.93,0,0,0,3.76-30.05,131.24,131.24,0,0,0-4-31.36,238.1,238.1,0,0,0-1.87,30.74" fill="#25b774"/>
    <path d="M83.08,229.56a121.93,121.93,0,0,1,26.29,14.64A225.91,225.91,0,0,1,81.21,235a228.11,228.11,0,0,1-26.37-12.69,113.61,113.61,0,0,1,28.25,7.29" fill="#25b774"/>
    <path d="M88.06,243.83A118.11,118.11,0,0,1,115.62,255a211,211,0,0,1-28.78-5.6,220.87,220.87,0,0,1-27.42-9.33,114,114,0,0,1,28.65,3.73" fill="#25b774"/>
    <path d="M118.71,224.79a238,238,0,0,0-3.1,30.25,117.11,117.11,0,0,0,8.82-28.54,127.44,127.44,0,0,0,1.42-31.19,213.92,213.92,0,0,0-7.15,29.48" fill="#25b774"/>
    <path d="M98.86,262a118.24,118.24,0,0,1,27.07,12.34,212.3,212.3,0,0,1-28.53-6.79,220.78,220.78,0,0,1-27-10.45A114.06,114.06,0,0,1,98.86,262" fill="#068e4d"/>
    <path d="M130.27,244.29a236.56,236.56,0,0,0-4.34,30.1,116.94,116.94,0,0,0,10-28.16,127.42,127.42,0,0,0,2.71-31.1,214.43,214.43,0,0,0-8.36,29.16" fill="#068e4d"/>
    <path d="M108.9,280.69a118.21,118.21,0,0,1,26.54,13.47,213.62,213.62,0,0,1-28.23-8,221.65,221.65,0,0,1-26.55-11.57,113.82,113.82,0,0,1,28.24,6.08" fill="#068e4d"/>
    <path d="M141,264.26a236.09,236.09,0,0,0-5.58,29.9,117.46,117.46,0,0,0,11.15-27.73,127.2,127.2,0,0,0,4-31A214.24,214.24,0,0,0,141,264.26" fill="#068e4d"/>
    <path d="M92.62,217.67A529.26,529.26,0,0,1,149.48,328" fill="none" stroke="#36e69a" stroke-linecap="round" stroke-linejoin="round" stroke-width="2"/>
  </g>

  <g id="mountain">
    <set
      attributeName="opacity"
      attributeType="XML"
      to="0"
      fill="freeze"
    />
    <animate
      attributeName="opacity"
      attributeType="XML"
      to="1"
      begin="scene1_opacity_up.begin"
      dur="0.3s"
      fill="freeze"
    />
    <path d="M290,328 h-45 l-32,-31 a2,2 0,0,0 -2,0 l-10,10 a2,2 0,0,1 -2,0 l-20,-20 a2,2 0,0,0 -2,0 l-26,26 a2,2 0,0,1 -2,0 l-4,-4 a2,2 0,0,0 -2,0 l-18,20 h-45" fill="none" stroke="#fff" stroke-linecap="round" stroke-miterlimit="10" stroke-width="2">
      <animate
        attributeName="d"
        attributeType="XML"
        to="M290,328 h-45 l-33,0 a2,2 0,0,0 0,0 l-12,0 a2,2 0,0,1 0,0 l-22,0 a2,2 0,0,0 0,0 l-28,0 a2,2 0,0,1 0,0 l-6,0 a2,2 0,0,0 0,0 l-19,0 h-45"
        begin="scene1_opacity_down.begin"
        dur="0.3s"
        fill="freeze"
      />
    </path>
  </g>
</svg>
