<svg
  viewBox="0 0 350 330"
  xmlns="http://www.w3.org/2000/svg"
  xmlns:xlink="http://www.w3.org/1999/xlink"
>
  <defs>
    <path
      id="suitcase_fly_path"
      d="M179,111c24.19-9.24,29.8-15.84,29.42-20.44C207.18,75.43,138.73,51.78,96,84c-2.93,2.21-31.66,24.52-29,54,3.54,39.18,59.83,61.15,75.7,67.35,53.65,20.94,94.43,8.79,101.78,27.18,2.89,7.25.78,19.69-21.48,42.47"
      fill="none"
      stroke="#000"
      stroke-miterlimit="10"
    />
  </defs>

  <animate
    id="prize2_opacity"
    attributeType="XML"
    attributeName="opacity"
    fill="freeze"
    to="1"
    begin="4.2s"
    dur="0.6s"
  />

  <g id="clouds">
    <set
      attributeType="XML"
      attributeName="opacity"
      to="0"
    />
    <animate
      id="clouds_opacity_up"
      attributeType="XML"
      attributeName="opacity"
      fill="freeze"
      to="1"
      begin="prize2_opacity.begin"
      dur="0.3s"
    />
    <animate
      id="clouds_opacity_down"
      attributeType="XML"
      attributeName="opacity"
      fill="freeze"
      to="0"
      begin="prize2_opacity.begin + 1.3s"
      dur="0.3s"
    />
    <animateTransform
      id="clouds_move_up"
      attributeType="XML"
      attributeName="transform"
      type="translate"
      fill="freeze"
      by="0 -80"
      begin="prize2_opacity.begin + 1.3s"
      dur="0.3s"
    />

    <g id="clouds_left">
      <animateTransform
        attributeType="XML"
        attributeName="transform"
        type="translate"
        fill="freeze"
        values="200 0"
      />
      <animateTransform
        attributeType="XML"
        attributeName="transform"
        type="translate"
        fill="freeze"
        to="0 0"
        begin="clouds_opacity_up.begin"
        dur="0.3s"
      />

      <line
        id="clouds_left_bottom"
        x1="65.43"
        y1="77.72"
        x2="105.21"
        y2="77.72"
        fill="none"
        stroke="#fff"
        stroke-linecap="round"
        stroke-miterlimit="10"
        stroke-width="2"
      />
      <path
        id="clouds_left_left"
        d="M85.22,67.45H57.86a12.4,12.4,0,1,0-24.8,0H15.13"
        fill="none"
        stroke="#fff"
        stroke-linecap="round"
        stroke-miterlimit="10"
        stroke-width="2"
      />
      <line
        id="clouds_left_right"
        x1="93.48"
        y1="67.45"
        x2="115.68"
        y2="67.45"
        fill="none"
        stroke="#fff"
        stroke-linecap="round"
        stroke-miterlimit="10"
        stroke-width="2"
      />
    </g>

    <path
      id="clouds_middle"
      d="M235.77,119H216.32a35.49,35.49,0,0,0-68-13.69A26.34,26.34,0,0,0,135.43,102a26.72,26.72,0,0,0-24.8,17H95.48a10.49,10.49,0,0,0,0,21h140.3a10.49,10.49,0,0,0,0-21"
      fill="#fff"
    >
      <animateTransform
        attributeType="XML"
        attributeName="transform"
        type="translate"
        fill="freeze"
        values="110 0"
      />
      <animateTransform
        attributeType="XML"
        attributeName="transform"
        type="translate"
        fill="freeze"
        to="0 0"
        begin="clouds_opacity_up.begin"
        dur="0.3s"
      />
    </path>

    <g id="clouds_right">
      <animateTransform
        attributeType="XML"
        attributeName="transform"
        type="translate"
        fill="freeze"
        values="80 0"
      />
      <animateTransform
        attributeType="XML"
        attributeName="transform"
        type="translate"
        fill="freeze"
        to="0 0"
        begin="clouds_opacity_up.begin"
        dur="0.3s"
      />

      <line
        id="clouds_right_left"
        x1="272.13"
        y1="145.27"
        x2="311.9"
        y2="145.27"
        fill="none"
        stroke="#fff"
        stroke-linecap="round"
        stroke-miterlimit="10"
        stroke-width="2"
      />
      <line
        id="clouds_right_right"
        x1="300.17"
        y1="135"
        x2="322.37"
        y2="135"
        fill="none"
        stroke="#fff"
        stroke-linecap="round"
        stroke-miterlimit="10"
        stroke-width="2"
      />
    </g>
  </g>

  <g id="big_leaf">
    <set
      attributeType="XML"
      attributeName="opacity"
      to="0"
    />
    <animate
      id="big_leaf_opacity_up"
      attributeType="XML"
      attributeName="opacity"
      fill="freeze"
      to="1"
      begin="prize2_opacity.begin"
      dur="0.4s"
    />

    <path
      id="big_leaf_petal"
      d="M263.47,206.82a2,2,0,0,1,3.15,2c-1,7-2.07,20.33,4.85,19.4,4.94-.66-16.65-31.53,19.32-38.16a2,2,0,0,1,2.18,2.89c-1.32,2.74-2.83,6.61-2.73,9.9a2,2,0,0,0,3.71,1c4.1-6.15,15.1-17.86,36.59-10.7a2,2,0,0,1,1.35,1.54c0.93,4.8,4.13,23.24-.29,28.72-5.09,6.31-15,4.14-16.18,10.25-1.3,6.91,7.51,4.82,13.42-.22a2,2,0,0,1,3.32,1.64c-0.25,5.45-2.18,14-11.12,18.69-13.78,7.21-23.48-7-25.19-3.88-2.59,4.66,7.94,8.47,13.78,10.18a2,2,0,0,1,.61,3.59c-10.52,7.74-29.13,10.28-37-5.41-8.3-16.59-12.93-12.49-18.19-20.38-5.71-8.57-4.33-22.54,8.38-31.05m29.4,32.47c0.5,2.73,5.2,3.51,8.35,2.94s8.47-3.83,8-6.56-6.62-3.9-9.78-3.33-7.05,4.22-6.55,6.95"
      fill="#e81a5a"
    >
      <animateTransform
        attributeType="XML"
        attributeName="transform"
        type="rotate"
        fill="freeze"
        values="1 267 249; -1 267 249; 1 267 249"
        begin="big_leaf_opacity_up.begin"
        dur="1.0s"
        repeatCount="indefinite"
      />
    </path>
    <path
      id="big_leaf_leg"
      d="M263,327.88s-4.91-70.27,5.54-80.72"
      fill="none"
      stroke="#e81a5a"
      stroke-miterlimit="10"
      stroke-width="2"
    />
  </g>

  <g id="suitcase_with_parachute">
    <set
      attributeType="XML"
      attributeName="opacity"
      to="0"
    />
    <animate
      id="suitcase_with_parachute_opacity_up"
      attributeType="XML"
      attributeName="opacity"
      fill="freeze"
      to="1"
      begin="prize2_opacity.begin"
      dur="0.4s"
    />

    <g id="suitcase_with_parachute_animation">
      <animateTransform
        attributeType="XML"
        attributeName="transform"
        type="translate"
        fill="freeze"
        additive="sum"
        values="-222.5 -275.9"
        begin="suitcase_with_parachute_opacity_up.begin"
        dur="2s"
      />
      <animateMotion
        fill="freeze"
        begin="suitcase_with_parachute_opacity_up.begin"
        dur="2s"
      >
        <mpath xlink:href="#suitcase_fly_path"/>
      </animateMotion>

      <animateTransform
        attributeType="XML"
        attributeName="transform"
        type="translate"
        fill="freeze"
        additive="sum"
        values="222.5 275.9"
        begin="suitcase_with_parachute_opacity_up.begin"
        dur="2s"
      />
      <animateTransform
        attributeType="XML"
        attributeName="transform"
        type="rotate"
        fill="freeze"
        additive="sum"
        values="30; 30; -30; -30; 20; 20; -5; -5; 0; 0"
        keyTimes="0; 0.1; 0.25; 0.3; 0.45; 0.55; 0.7; 0.75; 0.8; 1"
        begin="suitcase_with_parachute_opacity_up.begin"
        dur="2.5s"
      />
      <animateTransform
        attributeType="XML"
        attributeName="transform"
        type="scale"
        fill="freeze"
        additive="sum"
        values="0.1 0.1; 0.1 0.1; 1 1"
        keyTimes="0; 0.2; 1"
        begin="suitcase_with_parachute_opacity_up.begin"
        dur="2s"
      />
      <animateTransform
        attributeType="XML"
        attributeName="transform"
        type="translate"
        fill="freeze"
        additive="sum"
        values="-222.5 -275.9"
        begin="suitcase_with_parachute_opacity_up.begin"
        dur="2s"
      />

      <g id="suitcase">
        <g id="suitcase_legs">
          <path
            d="M251.89,328.88a3.54,3.54,0,0,0,3.53-3.53v-5.07a3.53,3.53,0,1,0-7.06,0v5.07a3.55,3.55,0,0,0,3.53,3.53"
            fill="#a67ee5"
          />
          <path
            d="M251.89,328.88a3.54,3.54,0,0,0,3.53-3.53v-5.07a3.53,3.53,0,1,0-7.06,0v5.07A3.55,3.55,0,0,0,251.89,328.88Z"
            fill="none"
            stroke="#fff"
            stroke-miterlimit="10"
            stroke-width="2"
          />
          <path
            d="M176.35,328.88a3.54,3.54,0,0,0,3.53-3.53v-5.07a3.53,3.53,0,1,0-7.06,0v5.07a3.54,3.54,0,0,0,3.53,3.53"
            fill="#a67ee5"
          />
          <path
            d="M176.35,328.88a3.54,3.54,0,0,0,3.53-3.53v-5.07a3.53,3.53,0,1,0-7.06,0v5.07A3.54,3.54,0,0,0,176.35,328.88Z"
            fill="none"
            stroke="#fff"
            stroke-miterlimit="10"
            stroke-width="2"
          />
        </g>

        <g id="suitcase_back">
          <path
            id="suitcase_back_fill"
            d="M170.92,320.29h74.5a11.38,11.38,0,0,0,11.35-11.35V242.86a11.38,11.38,0,0,0-11.35-11.35h-74.5a11.38,11.38,0,0,0-11.35,11.35v66.08a11.38,11.38,0,0,0,11.35,11.35"
            fill="#a67ee5"
          />
          <rect
            id="suitcase_back_outline"
            x="159.57"
            y="231.51"
            width="97.2"
            height="88.78"
            rx="11.35"
            ry="11.35"
            fill="none"
            stroke="#fff"
            stroke-miterlimit="10"
            stroke-width="2"
          />
        </g>

        <g id="suitcase_top_hand_body">
          <path
            id="suitcase_top_hand_body_fill"
            d="M199.26,219.15h32.4a4.09,4.09,0,0,1,4.08,4.08v16a1.19,1.19,0,0,1-1.19,1.19h-2.7a1.19,1.19,0,0,1-1.19-1.19V224.86a1.27,1.27,0,0,0-1.27-1.27H201.53a1.27,1.27,0,0,0-1.27,1.27v14.38a1.19,1.19,0,0,1-1.19,1.19h-2.7a1.19,1.19,0,0,1-1.19-1.19v-16a4.1,4.1,0,0,1,4.09-4.08"
            fill="#a67ee5"
          />
          <path
            id="suitcase_top_hand_body_outline"
            d="M199.26,219.15h32.4a4.09,4.09,0,0,1,4.08,4.08v16a1.19,1.19,0,0,1-1.19,1.19h-2.7a1.19,1.19,0,0,1-1.19-1.19V224.86a1.27,1.27,0,0,0-1.27-1.27H201.53a1.27,1.27,0,0,0-1.27,1.27v14.38a1.19,1.19,0,0,1-1.19,1.19h-2.7a1.19,1.19,0,0,1-1.19-1.19v-16A4.1,4.1,0,0,1,199.26,219.15Z"
            fill="none"
            stroke="#fff"
            stroke-miterlimit="10"
            stroke-width="2"
          />
        </g>

        <g id="suitcase_front">
          <path
            id="suitcase_front_fill"
            d="M185.34,320.29h74.5a11.38,11.38,0,0,0,11.35-11.35V242.86a11.38,11.38,0,0,0-11.35-11.35h-74.5A11.38,11.38,0,0,0,174,242.86v66.08a11.39,11.39,0,0,0,11.35,11.35"
            fill="#a67ee5"
          />
          <path
            id="suitcase_front_stroke"
            d="M185.34,320.29h74.5a11.38,11.38,0,0,0,11.35-11.35V242.86a11.38,11.38,0,0,0-11.35-11.35h-74.5A11.38,11.38,0,0,0,174,242.86v66.08A11.39,11.39,0,0,0,185.34,320.29Z"
            fill="none"
            stroke="#fff"
            stroke-miterlimit="10"
            stroke-width="2"
          />
          <g id="suitcase_front_decor">
            <line
              x1="254.22"
              y1="252.43"
              x2="190.97"
              y2="252.43"
              fill="none"
              stroke="#fff"
              stroke-linecap="round"
              stroke-miterlimit="10"
              stroke-width="2"
            />
            <line
              x1="254.22"
              y1="275.9"
              x2="190.97"
              y2="275.9"
              fill="none"
              stroke="#fff"
              stroke-linecap="round"
              stroke-miterlimit="10"
              stroke-width="2"
            />
            <line
              x1="254.22"
              y1="299.38"
              x2="190.97"
              y2="299.38"
              fill="none"
              stroke="#fff"
              stroke-linecap="round"
              stroke-miterlimit="10"
              stroke-width="2"
            />
          </g>
        </g>

        <g
          id="suitcase_side_hand">
          <path
            id="suitcase_side_hand_fill"
            d="M168.12,253.68h0.67v44.46h-0.67a3.53,3.53,0,0,1-3.52-3.51V257.2a3.52,3.52,0,0,1,3.52-3.52"
            fill="#a67ee5"
          />
          <path
            id="suitcase_side_hand_stroke"
            d="M168.12,253.68h0.67v44.46h-0.67a3.53,3.53,0,0,1-3.52-3.51V257.2A3.52,3.52,0,0,1,168.12,253.68Z"
            fill="none"
            stroke="#fff"
            stroke-miterlimit="10"
            stroke-width="2"
          />
        </g>
      </g>

      <g id="parachute">
        <g id="parachute_slings">
          <line
            x1="215.46"
            y1="218.86"
            x2="159.87"
            y2="139.03"
            fill="none"
            stroke="#fff"
            stroke-linecap="round"
            stroke-linejoin="round"
            stroke-width="2"
          />
          <line
            x1="215.46"
            y1="218.86"
            x2="196.93"
            y2="139.03"
            fill="none"
            stroke="#fff"
            stroke-linecap="round"
            stroke-linejoin="round"
            stroke-width="2"
          />
          <line
            x1="233.99"
            y1="139.03"
            x2="215.46"
            y2="218.86"
            fill="none"
            stroke="#fff"
            stroke-linecap="round"
            stroke-linejoin="round"
            stroke-width="2"
          />
          <line
            x1="271.04"
            y1="139.03"
            x2="215.46"
            y2="218.86"
            fill="none"
            stroke="#fff"
            stroke-linecap="round"
            stroke-linejoin="round"
            stroke-width="2"
          />
        </g>
        <g id="parachute_top">
          <path
            id="parachute_top_outline"
            d="M215.46,83.44A55.58,55.58,0,0,1,271,139c0-6.76-8.3-12.25-18.53-12.25s-18.31,5.35-18.52,12c0,0.08,0,.17,0,0.26,0-6.76-8.3-12.25-18.53-12.25s-18.54,5.49-18.54,12.25c0-.09,0-0.17,0-0.26-0.22-6.64-8.42-12-18.52-12s-18.52,5.49-18.52,12.25a55.58,55.58,0,0,1,55.59-55.59m0-1.66A57.31,57.31,0,0,0,158.22,139a1.66,1.66,0,1,0,3.32,0c0-5.84,7.57-10.59,16.87-10.59,9.11,0,16.68,4.66,16.86,10.38V139a1.66,1.66,0,0,0,3.32,0c0-5.84,7.57-10.59,16.87-10.59s16.87,4.75,16.87,10.59a1.66,1.66,0,0,0,3.32,0v-0.21c0.18-5.73,7.74-10.39,16.86-10.39,9.3,0,16.87,4.75,16.87,10.59a1.66,1.66,0,1,0,3.32,0,57.3,57.3,0,0,0-57.23-57.25"
            fill="#fff"
          />
          <path
            id="parachute_top_fill_right"
            d="M215.46,83.44c9.92,0,18,20.9,18.54,55.33,0.21-6.65,8.41-12,18.52-12S271,132.27,271,139a55.59,55.59,0,0,0-55.59-55.59"
            fill="#e81a5a"
          />
          <path
            id="parachute_top_fill_left"
            d="M215.45,83.44A55.58,55.58,0,0,0,159.87,139c0-6.76,8.3-12.25,18.52-12.25s18.3,5.35,18.52,12c0.52-34.43,8.61-55.32,18.53-55.32"
            fill="#fe6183"
          />
          <path
            id="parachute_top_fill_center"
            d="M215.46,83.44c-9.93,0-18,20.9-18.54,55.32,0,0.09,0,.17,0,0.26,0-6.76,8.3-12.25,18.53-12.25S234,132.27,234,139c0-.09,0-0.17,0-0.26-0.51-34.43-8.6-55.33-18.52-55.33"
            fill="#f7396b"
          />
        </g>
      </g>
    </g>
  </g>

  <g id="small_leaf">
    <set
      attributeType="XML"
      attributeName="opacity"
      to="0"
    />
    <animate
      id="small_leaf_opacity_up"
      attributeType="XML"
      attributeName="opacity"
      fill="freeze"
      to="1"
      begin="prize2_opacity.begin"
      dur="0.4s"
    />


    <animateTransform
      attributeType="XML"
      attributeName="transform"
      type="rotate"
      fill="freeze"
      values="5 245 328"
    />
    <animateTransform
      attributeType="XML"
      attributeName="transform"
      type="rotate"
      fill="freeze"
      values="5 245 328; -5 245 328; 5 245 328"
      begin="small_leaf_opacity_up.begin"
      dur="1.0s"
      repeatCount="indefinite"
    />

    <path
      id="small_leaf_petal"
      d="M322.92,283.4a2.15,2.15,0,0,1,.55,2.17c-1.06,3.43-4.58,12.85-12.1,16.34-5.13,2.38-8.33-2.7-10.92.77s2.1,5,6.92,4.31a2.16,2.16,0,0,1,2.14,3.34A14.34,14.34,0,0,1,297.78,317c-10.84.27-12.55-11.58-14.57-10.19-2.72,1.89,1.27,6.55,4.39,9.57a2.16,2.16,0,0,1-1.3,3.71c-8.76.84-19.72-3.51-19.8-15-0.08-12.94-4.25-11.8-5.11-18.35-0.91-6.88,3.88-14.88,13.74-16.69a2.16,2.16,0,0,1,2.31,3.11c-2.41,4.73-6,12.6-2.82,12.56,3.46,0-1.58-22.58,28.43-15.26a2.16,2.16,0,0,1,1.09,3.54l-0.1.11a2.16,2.16,0,0,0,2.41,3.45c3.66-1.52,9.16-1.27,16.47,5.84"
      fill="#fe6183"
    />
    <path
      id="small_leaf_leg"
      d="M245.13,327.88s3.48-30.11,21.7-30.11"
      fill="none"
      stroke="#fe6183"
      stroke-miterlimit="10"
      stroke-width="2"
    />
  </g>

  <g id="floor">
    <set
      attributeType="XML"
      attributeName="opacity"
      to="0"
    />
    <animate
      id="floor_opacity_up"
      attributeType="XML"
      attributeName="opacity"
      fill="freeze"
      to="1"
      begin="prize2_opacity.begin + 0.1s"
      dur="0.3s"
    />

    <animateTransform
      attributeType="XML"
      attributeName="transform"
      type="translate"
      fill="freeze"
      values="-240 0"
    />
    <animateTransform
      id="floor_move_right"
      attributeType="XML"
      attributeName="transform"
      type="translate"
      fill="freeze"
      to="0 0"
      begin="prize2_opacity.begin + 0.1s"
      dur="0.1s"
    />

    <line
      id="floor_line"
      x1="41"
      y1="329"
      x2="280"
      y2="329"
      fill="none"
      stroke="#fff"
      stroke-width="2"
    >
      <animate
        attributeType="XML"
        attributeName="x1"
        fill="freeze"
        to="147"
        begin="floor_move_right.end"
        dur="0.2s"
      />
    </line>
  </g>
</svg>
